<?xml version="1.0" encoding="UTF-8"?>
<svg version="1.1" xmlns="http://www.w3.org/2000/svg" width="132" height="137">
<path d="M0 0 C0.4846875 0.37511719 0.969375 0.75023437 1.46875 1.13671875 C13.31882376 10.18379429 24.06876544 14.93801404 38.75390625 17.38671875 C42 18 42 18 43 19 C43.08685603 20.56172745 43.10702219 22.12729344 43.09765625 23.69140625 C43.09282227 25.10776367 43.09282227 25.10776367 43.08789062 26.55273438 C43.07532227 28.04256836 43.07532227 28.04256836 43.0625 29.5625 C43.05798828 30.55958984 43.05347656 31.55667969 43.04882812 32.58398438 C43.03700007 35.05604849 43.02051849 37.52799518 43 40 C44.98 40.495 44.98 40.495 47 41 C48.09293514 43.84163138 48.02394138 44.93116853 47 47.875 C45.8421629 51.49324092 46.17624745 53.33055683 47 57 C48.125 63.75 48.125 63.75 47 66 C45.515 66.495 45.515 66.495 44 67 C43.1029981 69.53008178 42.36847098 71.97498324 41.6875 74.5625 C39.80469655 81.09190128 37.74662208 86.0048017 33 91 C32.53464844 91.56460938 32.06929688 92.12921875 31.58984375 92.7109375 C26.54501561 98.4137867 19.81173556 102.26593067 13.15649414 105.83691406 C11.56520675 106.69516077 10.00565929 107.61287494 8.46655273 108.56152344 C4.55101188 110.74307399 1.67683806 112.32602782 -2.84033203 111.44775391 C-5.87269856 110.17033761 -8.61286761 108.68731302 -11.4375 107 C-12.44159912 106.43345703 -13.44569824 105.86691406 -14.48022461 105.28320312 C-26.54700702 98.26437922 -36.21701636 90.64237379 -41 77 C-41.60598941 74.31272552 -42.09035919 71.69936392 -42.3828125 68.9609375 C-42.82972414 66.79619704 -42.82972414 66.79619704 -45.0546875 65.7265625 C-45.69664063 65.48679687 -46.33859375 65.24703125 -47 65 C-46.85769192 63.58297487 -46.71099254 62.1663904 -46.5625 60.75 C-46.48128906 59.96109375 -46.40007813 59.1721875 -46.31640625 58.359375 C-46 56 -46 56 -45.40625 53.88671875 C-44.78141135 50.98482385 -46.04233054 48.7603414 -47 46 C-47.125 43.125 -47.125 43.125 -47 41 C-44.525 40.505 -44.525 40.505 -42 40 C-42 32.74 -42 25.48 -42 18 C-39.4425 17.608125 -36.885 17.21625 -34.25 16.8125 C-22.34009341 14.78991253 -13.23694178 10.85884966 -4 3 C-2.67332935 1.99117753 -1.34191029 0.9884607 0 0 Z " fill="#C64F31" transform="translate(67,13)"/>
<path d="M0 0 C29.37 0 58.74 0 89 0 C88.67 4.29 88.34 8.58 88 13 C88.24774053 16.00827787 88.54482204 19.01605561 89 22 C77.54349984 22.02312241 66.08700519 22.04091457 54.63048649 22.05181217 C49.31134787 22.05704122 43.99222516 22.06413927 38.6730957 22.07543945 C33.54436015 22.08626755 28.41563994 22.09227667 23.28689384 22.09487724 C21.32558386 22.09673163 19.36427476 22.10035251 17.40297127 22.10573006 C14.66584553 22.11293946 11.92878403 22.11399099 9.19165039 22.11352539 C7.96274582 22.1189183 7.96274582 22.1189183 6.70901489 22.12442017 C1.11405216 22.11405216 1.11405216 22.11405216 0 21 C0.18448526 17.55934999 0.52192773 14.1412703 0.84375 10.7109375 C1.13712274 6.43534792 1.13712274 6.43534792 0 0 Z " fill="#BD372D" transform="translate(23,55)"/>
<path d="M0 0 C28.38 0 56.76 0 86 0 C85.01 0.33 84.02 0.66 83 1 C82.9175 2.134375 82.835 3.26875 82.75 4.4375 C81.96987797 10.70076545 79.73933442 16.70751711 75 21 C75.54839055 18.25804724 76.40877404 16.08434616 77.5625 13.5 C79.25327924 10.01393724 79.25327924 10.01393724 79 6 C78.04609375 6.01160156 77.0921875 6.02320312 76.109375 6.03515625 C58.73269455 6.16826308 41.36625993 5.53082788 24 5 C24 5.99 24 6.98 24 8 C24.99 8 25.98 8 27 8 C27.41572266 9.28197266 27.41572266 9.28197266 27.83984375 10.58984375 C28.20207031 11.69457031 28.56429687 12.79929687 28.9375 13.9375 C29.29714844 15.03964844 29.65679687 16.14179687 30.02734375 17.27734375 C30.73856668 19.88123475 30.73856668 19.88123475 32 21 C32.45375 20.505 32.9075 20.01 33.375 19.5 C35 18 35 18 37 18 C37.66 19.32 38.32 20.64 39 22 C42.17318242 18.99455137 42.17318242 18.99455137 43.09765625 14.8359375 C43.08605469 14.02382812 43.07445312 13.21171875 43.0625 12.375 C43.05347656 11.55773437 43.04445312 10.74046875 43.03515625 9.8984375 C43.02355469 9.27195312 43.01195312 8.64546875 43 8 C43.66 8 44.32 8 45 8 C45 14.6 45 21.2 45 28 C43.35 28 41.7 28 40 28 C40 28.66 40 29.32 40 30 C44.82442184 28.73053486 44.82442184 28.73053486 48 25 C48.3626117 23.07255631 48.3626117 23.07255631 48.4140625 20.98828125 C48.45273438 20.23095703 48.49140625 19.47363281 48.53125 18.69335938 C48.57765625 17.51483398 48.57765625 17.51483398 48.625 16.3125 C48.66367188 15.51521484 48.70234375 14.71792969 48.7421875 13.89648438 C48.83632494 11.93136525 48.91924632 9.9657146 49 8 C50.98 8 52.96 8 55 8 C55 10.31 55 12.62 55 15 C53.35 15.33 51.7 15.66 50 16 C55.19998002 22.42761157 55.19998002 22.42761157 62 27 C61.8828125 29.75390625 61.8828125 29.75390625 61 33 C58.3046875 35.15234375 58.3046875 35.15234375 54.875 36.9375 C53.20050781 37.84822266 53.20050781 37.84822266 51.4921875 38.77734375 C46.07049859 40.67554132 42.58135868 39.67015417 37.38671875 37.46875 C36.14531243 36.82840381 34.91234445 36.17148265 33.6875 35.5 C33.03595947 35.14542725 32.38441895 34.79085449 31.71313477 34.42553711 C22.21947497 29.06668534 12.34783036 21.17044965 9.21875 10.28125 C9.0021875 9.3840625 8.785625 8.486875 8.5625 7.5625 C7.78400453 4.12750748 7.78400453 4.12750748 5.265625 1.92578125 C3.1138163 1.26224513 3.1138163 1.26224513 0 1 C0 0.67 0 0.34 0 0 Z " fill="#AC180F" transform="translate(22,78)"/>
<path d="M0 0 C18.15 0 36.3 0 55 0 C56.12192569 5.60962847 56.12192569 5.60962847 54.1875 9 C52.94058689 11.24612294 51.97515886 13.08487391 51.25 15.5625 C48.71422451 20.50726221 43.94321112 24.068878 39 26.4375 C38.34 26.623125 37.68 26.80875 37 27 C37.33 25.35 37.66 23.7 38 22 C37.42765625 21.91621094 36.8553125 21.83242187 36.265625 21.74609375 C33.32969027 20.77926007 31.90031688 19.26458377 29.75 17.0625 C29.04359375 16.35222656 28.3371875 15.64195313 27.609375 14.91015625 C26 13 26 13 26 11 C27.32 10.67 28.64 10.34 30 10 C30.33 7.69 30.66 5.38 31 3 C29.02 3 27.04 3 25 3 C25.04640625 4.16917969 25.0928125 5.33835937 25.140625 6.54296875 C25.17815594 8.0911202 25.21455469 9.63929939 25.25 11.1875 C25.30027344 12.34088867 25.30027344 12.34088867 25.3515625 13.51757812 C25.42033683 17.52368256 25.28992982 19.52333572 23.15625 23.03125 C21 25 21 25 18.25 25.3125 C17.5075 25.209375 16.765 25.10625 16 25 C16 24.34 16 23.68 16 23 C17.65 23 19.3 23 21 23 C21 16.4 21 9.8 21 3 C20.67 3.33 20.34 3.66 20 4 C20.04125 5.216875 20.0825 6.43375 20.125 7.6875 C20.17682008 11.80349456 19.2988041 14.50922341 17 18 C16.01 18.33 15.02 18.66 14 19 C13.67 17.02 13.34 15.04 13 13 C11.05000871 13.19471111 11.05000871 13.19471111 9 14 C7.8529475 16.00213945 7.8529475 16.00213945 7 18 C6.32779649 16.06441401 5.66241923 14.12645628 5 12.1875 C4.62875 11.10855469 4.2575 10.02960938 3.875 8.91796875 C3 6 3 6 3 3 C2.01 3 1.02 3 0 3 C0 2.01 0 1.02 0 0 Z " fill="#B1271D" transform="translate(46,83)"/>
<path d="M0 0 C2.57026457 0.94724143 4.72141189 2.16466999 6.96948242 3.72583008 C6.96948242 4.38583008 6.96948242 5.04583008 6.96948242 5.72583008 C7.66944336 6.00426758 8.3694043 6.28270508 9.09057617 6.56958008 C11.02607494 7.34693101 12.95576875 8.13887885 14.87963867 8.94458008 C22.25486127 11.94219224 29.0767342 13.67980321 36.96948242 14.72583008 C36.96948242 20.66583008 36.96948242 26.60583008 36.96948242 32.72583008 C36.30948242 32.72583008 35.64948242 32.72583008 34.96948242 32.72583008 C34.9134082 31.35297852 34.9134082 31.35297852 34.85620117 29.95239258 C34.79045898 28.76387695 34.7247168 27.57536133 34.65698242 26.35083008 C34.59897461 25.1674707 34.5409668 23.98411133 34.48120117 22.76489258 C34.22790039 21.26055664 34.22790039 21.26055664 33.96948242 19.72583008 C29.59730457 16.81104485 24.95318546 16.50509517 19.82885742 15.60473633 C15.81530744 14.69071938 12.64473345 13.54946352 8.96948242 11.72583008 C8.47448242 10.73583008 8.47448242 10.73583008 7.96948242 9.72583008 C6.30593452 9.05141877 4.638813 8.38579798 2.96948242 7.72583008 C2.28885742 7.16895508 1.60823242 6.61208008 0.90698242 6.03833008 C-0.90919707 4.51923505 -0.90919707 4.51923505 -2.96801758 4.85083008 C-6.53014164 6.36203423 -9.31668101 7.76489623 -11.65551758 10.91333008 C-12.10926758 11.51145508 -12.56301758 12.10958008 -13.03051758 12.72583008 C-14.02051758 12.72583008 -15.01051758 12.72583008 -16.03051758 12.72583008 C-16.03051758 13.38583008 -16.03051758 14.04583008 -16.03051758 14.72583008 C-18.59198328 17.02231657 -19.5101933 17.72583008 -23.03051758 17.72583008 C-23.03051758 19.04583008 -23.03051758 20.36583008 -23.03051758 21.72583008 C-24.35051758 22.05583008 -25.67051758 22.38583008 -27.03051758 22.72583008 C-26.37051758 23.38583008 -25.71051758 24.04583008 -25.03051758 24.72583008 C-25.03051758 26.04583008 -25.03051758 27.36583008 -25.03051758 28.72583008 C-23.05051758 28.39583008 -21.07051758 28.06583008 -19.03051758 27.72583008 C-19.03051758 27.06583008 -19.03051758 26.40583008 -19.03051758 25.72583008 C-17.82395508 24.82864258 -17.82395508 24.82864258 -16.59301758 23.91333008 C-13.73340956 21.47220128 -13.33519888 20.3820057 -13.03051758 16.72583008 C-12.04051758 17.05583008 -11.05051758 17.38583008 -10.03051758 17.72583008 C-8.99920023 20.33445632 -8.59994309 22.96630643 -8.03051758 25.72583008 C-4.40051758 25.72583008 -0.77051758 25.72583008 2.96948242 25.72583008 C2.96948242 26.05583008 2.96948242 26.38583008 2.96948242 26.72583008 C-0.66051758 27.05583008 -4.29051758 27.38583008 -8.03051758 27.72583008 C-8.03051758 28.38583008 -8.03051758 29.04583008 -8.03051758 29.72583008 C-3.74051758 29.72583008 0.54948242 29.72583008 4.96948242 29.72583008 C4.47448242 31.21083008 4.47448242 31.21083008 3.96948242 32.72583008 C-9.89051758 32.72583008 -23.75051758 32.72583008 -38.03051758 32.72583008 C-38.03051758 26.78583008 -38.03051758 20.84583008 -38.03051758 14.72583008 C-36.40114258 14.56083008 -34.77176758 14.39583008 -33.09301758 14.22583008 C-27.32813084 13.2741445 -22.45882795 11.39174287 -17.21801758 8.91333008 C-16.16142944 8.41639648 -16.16142944 8.41639648 -15.08349609 7.90942383 C-11.53593082 6.17095386 -8.40178989 4.31410617 -5.26879883 1.90161133 C-2.03051758 -0.27416992 -2.03051758 -0.27416992 0 0 Z " fill="#BA2216" transform="translate(68.030517578125,20.274169921875)"/>
<path d="M0 0 C0.4846875 0.37511719 0.969375 0.75023437 1.46875 1.13671875 C13.31882376 10.18379429 24.06876544 14.93801404 38.75390625 17.38671875 C42 18 42 18 43 19 C43.08685603 20.56172745 43.10702219 22.12729344 43.09765625 23.69140625 C43.09282227 25.10776367 43.09282227 25.10776367 43.08789062 26.55273438 C43.07532227 28.04256836 43.07532227 28.04256836 43.0625 29.5625 C43.05798828 30.55958984 43.05347656 31.55667969 43.04882812 32.58398438 C43.03700007 35.05604849 43.02051849 37.52799518 43 40 C44.98 40.495 44.98 40.495 47 41 C48.09293514 43.84163138 48.02394138 44.93116853 47 47.875 C45.8421629 51.49324092 46.17624745 53.33055683 47 57 C47.33859959 59.33257494 47.6732039 61.66574212 48 64 C45.16424013 60.51974926 42.92483454 57.46719564 43.06640625 52.8203125 C43.45111499 49.09535488 44.08931178 45.64275289 45 42 C27.51 42 10.02 42 -8 42 C-8 41.67 -8 41.34 -8 41 C7.18 41 22.36 41 38 41 C38 34.73 38 28.46 38 22 C35.36 22 32.72 22 30 22 C26.18359375 21.046875 26.18359375 21.046875 22.4375 19.75 C21.7870874 19.52546143 21.1366748 19.30092285 20.46655273 19.06958008 C15.96901783 17.4709463 11.97816133 15.61976478 8 13 C8 12.34 8 11.68 8 11 C7.38125 10.87625 6.7625 10.7525 6.125 10.625 C4 10 4 10 2 8 C-1.77932438 8.32429846 -4.11116532 9.52686719 -7.125 11.75 C-19.23832924 19.92451794 -27.74428864 20.49204855 -42 19 C-42 18.67 -42 18.34 -42 18 C-40.36804688 17.76216797 -40.36804688 17.76216797 -38.703125 17.51953125 C-25.17467143 15.42540077 -14.58985971 12.00992096 -4 3 C-2.67332935 1.99117753 -1.34191029 0.9884607 0 0 Z " fill="#E9DA96" transform="translate(67,13)"/>
<path d="M0 0 C2.8125 0.375 2.8125 0.375 6 2 C6.99791274 4.38314322 7.55244868 6.77199329 8.1796875 9.27734375 C11.75990402 21.16025288 22.30219692 28.36133315 32.625 34.0625 C33.34147705 34.46919922 34.0579541 34.87589844 34.79614258 35.29492188 C39.58985278 37.81914876 42.59839321 38.55288583 48 37 C50.72142732 35.84914239 53.25800803 34.48160534 55.8125 33 C56.85591553 32.40529907 56.85591553 32.40529907 57.92041016 31.79858398 C64.00007118 28.22053088 69.04142577 24.03305925 74 19 C76 17 76 17 79 16 C79.33646317 19.57686227 79.38293492 21.43325632 77.33984375 24.45703125 C70.90925322 30.76214684 64.0920516 35.71285787 56.1081543 39.88525391 C54.5346362 40.71729602 52.99634873 41.61659947 51.47973633 42.54833984 C47.56189555 44.7321002 44.68022458 46.32616889 40.15893555 45.44848633 C37.12733025 44.1702805 34.38680029 42.68711464 31.5625 41 C30.05635132 40.15018555 30.05635132 40.15018555 28.51977539 39.28320312 C16.47255639 32.27575856 6.73546021 24.64095256 2 11 C1.09153844 7.34834078 0.42674875 3.73773041 0 0 Z " fill="#B48A38" transform="translate(24,79)"/>
<path d="M0 0 C2.29561451 1.00433135 4.00520867 2.36379445 6 3.875 C6.886875 4.225625 7.77375 4.57625 8.6875 4.9375 C11 5.875 11 5.875 12 7.875 C14.56530879 8.63246142 17.08355786 9.28455785 19.6875 9.875 C32.46433566 12.85122378 32.46433566 12.85122378 37 15.875 C37.41996896 20.23147806 37.12895366 24.49057569 37 28.875 C30.73 28.875 24.46 28.875 18 28.875 C18.495 27.39 18.495 27.39 19 25.875 C20.98 25.875 22.96 25.875 25 25.875 C25 23.895 25 21.915 25 19.875 C25.66 19.545 26.32 19.215 27 18.875 C25.68 18.215 24.36 17.555 23 16.875 C23 15.885 23 14.895 23 13.875 C21.515 13.50375 21.515 13.50375 20 13.125 C15.71904804 11.91687859 11.90940785 9.96678706 8 7.875 C8 7.215 8 6.555 8 5.875 C5.69 5.545 3.38 5.215 1 4.875 C0.01 8.175 -0.98 11.475 -2 14.875 C-4.97 14.215 -7.94 13.555 -11 12.875 C-10.87625 13.98875 -10.87625 13.98875 -10.75 15.125 C-11 17.875 -11 17.875 -12.875 20.1875 C-15 21.875 -15 21.875 -17 21.875 C-17 22.535 -17 23.195 -17 23.875 C-19.31 24.535 -21.62 25.195 -24 25.875 C-23.95875 25.111875 -23.9175 24.34875 -23.875 23.5625 C-23.77919176 20.64781584 -23.77919176 20.64781584 -26 17.875 C-24.35 17.875 -22.7 17.875 -21 17.875 C-21 16.555 -21 15.235 -21 13.875 C-16.92857143 10.875 -16.92857143 10.875 -14 10.875 C-14 10.215 -14 9.555 -14 8.875 C-13.4225 8.6275 -12.845 8.38 -12.25 8.125 C-9.68284836 6.69880465 -8.03895306 4.97767034 -6 2.875 C-2.64516129 -0.16532258 -2.64516129 -0.16532258 0 0 Z " fill="#BE3527" transform="translate(66,24.125)"/>
<path d="M0 0 C11.71428571 -0.14285714 11.71428571 -0.14285714 17 1 C17 1.33 17 1.66 17 2 C11.06 2.495 11.06 2.495 5 3 C5 9.27 5 15.54 5 22 C14.57 22 24.14 22 34 22 C34 22.33 34 22.66 34 23 C22.12 23 10.24 23 -2 23 C-1.34 25.31 -0.68 27.62 0 30 C-0.33 34.62 -0.66 39.24 -1 44 C28.04 44.33 57.08 44.66 87 45 C87.33 43.68 87.66 42.36 88 41 C88.495 43.97 88.495 43.97 89 47 C87.515 47.495 87.515 47.495 86 48 C85.03280094 50.63620719 84.22826175 53.17338382 83.5 55.875 C81.26093395 64.09453925 81.26093395 64.09453925 78 67 C77.67 66.01 77.34 65.02 77 64 C76.01 64.495 76.01 64.495 75 65 C75.19335938 64.3709375 75.38671875 63.741875 75.5859375 63.09375 C75.84632812 62.2378125 76.10671875 61.381875 76.375 60.5 C76.75785156 59.24703125 76.75785156 59.24703125 77.1484375 57.96875 C77.83073625 55.5900938 78.45731176 53.21530714 79.05322266 50.81445312 C79.36565918 49.55568359 79.6780957 48.29691406 80 47 C78.42479332 47.00333092 78.42479332 47.00333092 76.81776428 47.00672913 C66.94354419 47.02696015 57.06932828 47.04197195 47.1950922 47.05181217 C42.11808982 47.0570411 37.04110411 47.06413892 31.96411133 47.07543945 C27.06879448 47.08626799 22.17349371 47.09227676 17.27816582 47.09487724 C15.40617049 47.09673155 13.53417609 47.10035228 11.66218758 47.10573006 C9.04959301 47.11294004 6.43706573 47.11399096 3.82446289 47.11352539 C3.04259613 47.11712067 2.26072937 47.12071594 1.45516968 47.12442017 C-3.88594784 47.11405216 -3.88594784 47.11405216 -5 46 C-4.9140625 44.07421875 -4.9140625 44.07421875 -4.625 41.6875 C-4.53476562 40.90761719 -4.44453125 40.12773438 -4.3515625 39.32421875 C-4 37 -4 37 -3.40234375 34.890625 C-2.78430872 31.9864604 -4.04188061 29.76163824 -5 27 C-5.125 24.125 -5.125 24.125 -5 22 C-3.35 21.67 -1.7 21.34 0 21 C0 14.07 0 7.14 0 0 Z " fill="#BF9A45" transform="translate(25,32)"/>
<path d="M0 0 C28.38 0 56.76 0 86 0 C85.01 0.33 84.02 0.66 83 1 C82.67 2.98 82.34 4.96 82 7 C81.01 6.01 81.01 6.01 80 5 C76.93938801 4.68773858 76.93938801 4.68773858 73.29052734 4.72875977 C72.60082855 4.72353302 71.91112976 4.71830627 71.20053101 4.71292114 C69.70002904 4.70266755 68.19949138 4.69689837 66.69895554 4.69503975 C64.31887979 4.69138002 61.93922226 4.67466134 59.55923462 4.65428162 C52.79135957 4.59885415 46.02342083 4.56828756 39.25537109 4.54370117 C35.11618123 4.52775776 30.97728334 4.49745923 26.83824539 4.45893669 C25.26513412 4.44733645 23.69197042 4.44135678 22.11881638 4.44125557 C6.94145246 4.43992603 6.94145246 4.43992603 0 1 C0 0.67 0 0.34 0 0 Z " fill="#601C0B" transform="translate(22,78)"/>
<path d="M0 0 C1.98 0.66 3.96 1.32 6 2 C6.02578125 2.556875 6.0515625 3.11375 6.078125 3.6875 C6.69110607 11.93488164 9.54374659 17.79971203 15 24 C24.2037873 31.32678427 34.49718006 36.78636996 45 42 C45 42.66 45 43.32 45 44 C39.01052841 44.66442691 34.99757297 42.44097869 29.875 39.6875 C28.61683472 39.01243408 28.61683472 39.01243408 27.33325195 38.32373047 C15.66850032 31.83272499 6.51360426 24.00187496 2 11 C1.09153844 7.34834078 0.42674875 3.73773041 0 0 Z " fill="#A57E32" transform="translate(24,79)"/>
<path d="M0 0 C5.94 0 11.88 0 18 0 C20.12863242 4.25726483 20.58695321 7.36662696 20 12 C18.6875 15.4375 18.6875 15.4375 17 18 C16.01 18.33 15.02 18.66 14 19 C13.67 17.02 13.34 15.04 13 13 C11.05000871 13.19471111 11.05000871 13.19471111 9 14 C7.8529475 16.00213945 7.8529475 16.00213945 7 18 C6.32779649 16.06441401 5.66241923 14.12645628 5 12.1875 C4.62875 11.10855469 4.2575 10.02960938 3.875 8.91796875 C3 6 3 6 3 3 C2.01 3 1.02 3 0 3 C0 2.01 0 1.02 0 0 Z " fill="#9E302A" transform="translate(46,83)"/>
<path d="M0 0 C3.48330216 0.64505596 6.09432866 1.98217268 9 4 C9 4.66 9 5.32 9 6 C9.69996094 6.2784375 10.39992188 6.556875 11.12109375 6.84375 C13.05659252 7.62110093 14.98628633 8.41304877 16.91015625 9.21875 C24.28537885 12.21636216 31.10725178 13.95397313 39 15 C39 20.94 39 26.88 39 33 C38.34 33 37.68 33 37 33 C36.94392578 31.62714844 36.94392578 31.62714844 36.88671875 30.2265625 C36.82097656 29.03804687 36.75523438 27.84953125 36.6875 26.625 C36.62949219 25.44164063 36.57148437 24.25828125 36.51171875 23.0390625 C36.25841797 21.53472656 36.25841797 21.53472656 36 20 C31.62782215 17.08521477 26.98370303 16.77926509 21.859375 15.87890625 C17.84582502 14.9648893 14.67525103 13.82363344 11 12 C10.67 11.34 10.34 10.68 10 10 C9.278125 9.71125 8.55625 9.4225 7.8125 9.125 C4.54103908 7.81641563 1.88236258 6.01095064 -1 4 C-0.67 2.68 -0.34 1.36 0 0 Z " fill="#691C0C" transform="translate(66,20)"/>
<path d="M0 0 C23.76 0 47.52 0 72 0 C74 5 74 5 73.42578125 7.3515625 C73.05839844 8.10179688 72.69101563 8.85203125 72.3125 9.625 C71.95800781 10.38039063 71.60351562 11.13578125 71.23828125 11.9140625 C70.02293715 13.9613614 68.7581978 15.40900833 67 17 C67.54839055 14.25804724 68.40877404 12.08434616 69.5625 9.5 C71.25327924 6.01393724 71.25327924 6.01393724 71 2 C70.04609375 2.01160156 69.0921875 2.02320312 68.109375 2.03515625 C50.73269455 2.16826308 33.36625993 1.53082788 16 1 C16 1.99 16 2.98 16 4 C16.99 4 17.98 4 19 4 C20.65 9.28 22.3 14.56 24 20 C22.68 20 21.36 20 20 20 C19.80664062 19.07316406 19.61328125 18.14632812 19.4140625 17.19140625 C19.15367188 15.99386719 18.89328125 14.79632813 18.625 13.5625 C18.36976562 12.36753906 18.11453125 11.17257813 17.8515625 9.94140625 C17.57054688 8.97074219 17.28953125 8.00007813 17 7 C16.34 6.67 15.68 6.34 15 6 C14.67 5.01 14.34 4.02 14 3 C13.24074219 3.01160156 12.48148438 3.02320312 11.69921875 3.03515625 C10.70535156 3.04417969 9.71148437 3.05320312 8.6875 3.0625 C7.70136719 3.07410156 6.71523438 3.08570312 5.69921875 3.09765625 C3 3 3 3 0 2 C0 1.34 0 0.68 0 0 Z " fill="#8D180E" transform="translate(30,82)"/>
<path d="M0 0 C0.495 0.99 0.495 0.99 1 2 C1.804375 2.12375 2.60875 2.2475 3.4375 2.375 C6 3 6 3 7.3125 5.0625 C7.6528125 6.0215625 7.6528125 6.0215625 8 7 C8.99 7 9.98 7 11 7 C11.495 8.485 11.495 8.485 12 10 C11.34 10 10.68 10 10 10 C10 9.34 10 8.68 10 8 C9.38125 7.87625 8.7625 7.7525 8.125 7.625 C6 7 6 7 4 5 C0.22067562 5.32429846 -2.11116532 6.52686719 -5.125 8.75 C-17.23832924 16.92451794 -25.74428864 17.49204855 -40 16 C-40 15.67 -40 15.34 -40 15 C-38.36804688 14.76216797 -38.36804688 14.76216797 -36.703125 14.51953125 C-24.79108753 12.67446392 -14.10101262 10.14450085 -4.62109375 2.234375 C-3 1 -3 1 0 0 Z " fill="#DABF6B" transform="translate(65,16)"/>
<path d="M0 0 C2 2 2 2 2 6 C1.01 6.33 0.02 6.66 -1 7 C-1.96719906 9.63620719 -2.77173825 12.17338382 -3.5 14.875 C-5.73906605 23.09453925 -5.73906605 23.09453925 -9 26 C-9.495 24.515 -9.495 24.515 -10 23 C-10.99 23.495 -10.99 23.495 -12 24 C-11.80664062 23.3709375 -11.61328125 22.741875 -11.4140625 22.09375 C-11.15367188 21.2378125 -10.89328125 20.381875 -10.625 19.5 C-10.24214844 18.24703125 -10.24214844 18.24703125 -9.8515625 16.96875 C-8.8099395 13.33740377 -7.91624727 9.66498907 -7 6 C-25.15 5.67 -43.3 5.34 -62 5 C-62 4.67 -62 4.34 -62 4 C-41.54 4 -21.08 4 0 4 C0 2.68 0 1.36 0 0 Z " fill="#C5A24D" transform="translate(112,73)"/>
<path d="M0 0 C0.33 0 0.66 0 1 0 C1 6.93 1 13.86 1 21 C2.32 21.33 3.64 21.66 5 22 C6.09293514 24.84163138 6.02394138 25.93116853 5 28.875 C3.8421629 32.49324092 4.17624745 34.33055683 5 38 C5.33859959 40.33257494 5.6732039 42.66574212 6 45 C3.16424013 41.51974926 0.92483454 38.46719564 1.06640625 33.8203125 C1.45111499 30.09535488 2.08931178 26.64275289 3 23 C-14.49 23 -31.98 23 -50 23 C-50 22.67 -50 22.34 -50 22 C-34.82 22 -19.64 22 -4 22 C-4 15.73 -4 9.46 -4 3 C-3.67 3 -3.34 3 -3 3 C-3 9.27 -3 15.54 -3 22 C-2.34 22 -1.68 22 -1 22 C-1.01160156 21.16597656 -1.02320313 20.33195312 -1.03515625 19.47265625 C-1.08799793 12.88254338 -0.88555068 6.53093626 0 0 Z " fill="#DDC373" transform="translate(109,32)"/>
<path d="M0 0 C2.6855594 2.6855594 3.06049974 5.37621328 4 9 C5.98 8.34 7.96 7.68 10 7 C9.21800781 9.79101279 8.34417 12.42594167 7 15 C4.875 16 4.875 16 2 16 C0.84951172 16.01740234 0.84951172 16.01740234 -0.32421875 16.03515625 C-2.55160589 16.05963303 -4.77305638 16.04366556 -7 16 C-8.49821059 12.62902617 -9 10.79557881 -9 7 C-7.02 7.66 -5.04 8.32 -3 9 C-2.87625 8.071875 -2.7525 7.14375 -2.625 6.1875 C-2 3 -2 3 0 0 Z " fill="#B0802D" transform="translate(67,30)"/>
<path d="M0 0 C1.62463842 -0.05395478 3.24978541 -0.09277195 4.875 -0.125 C6.23238281 -0.15980469 6.23238281 -0.15980469 7.6171875 -0.1953125 C10 0 10 0 12 2 C12.27783543 6.01194366 12.0856495 9.97447362 12 14 C6.39 14 0.78 14 -5 14 C-4.67 13.01 -4.34 12.02 -4 11 C-2.02 11 -0.04 11 2 11 C2 9.02 2 7.04 2 5 C2.66 4.67 3.32 4.34 4 4 C2.68 3.34 1.36 2.68 0 2 C0 1.34 0 0.68 0 0 Z " fill="#CE4535" transform="translate(89,39)"/>
<path d="M0 0 C2.10388569 -0.05402274 4.20816714 -0.09280256 6.3125 -0.125 C8.07013672 -0.15980469 8.07013672 -0.15980469 9.86328125 -0.1953125 C13 0 13 0 16 2 C16.3125 5 16.3125 5 16 8 C15.34 8.66 14.68 9.32 14 10 C13.01 9.67 12.02 9.34 11 9 C11.33 6.69 11.66 4.38 12 2 C10.02 2 8.04 2 6 2 C6.04640625 3.16917969 6.0928125 4.33835937 6.140625 5.54296875 C6.17815594 7.0911202 6.21455469 8.63929939 6.25 10.1875 C6.30027344 11.34088867 6.30027344 11.34088867 6.3515625 12.51757812 C6.42033683 16.52368256 6.28992982 18.52333572 4.15625 22.03125 C2 24 2 24 -0.75 24.3125 C-1.4925 24.209375 -2.235 24.10625 -3 24 C-3 23.34 -3 22.68 -3 22 C-1.35 22 0.3 22 2 22 C2 15.07 2 8.14 2 1 C1.34 0.67 0.68 0.34 0 0 Z " fill="#D3BEB9" transform="translate(65,84)"/>
<path d="M0 0 C3.80640836 0.57264551 6.43871561 1.64157132 9.6875 3.6875 C10.54859375 4.22117187 11.4096875 4.75484375 12.296875 5.3046875 C13.18890625 5.86414063 14.0809375 6.42359375 15 7 C16.80943893 8.10917584 18.6218353 9.21354505 20.4375 10.3125 C21.24058594 10.80363281 22.04367188 11.29476562 22.87109375 11.80078125 C25.07286228 13.12989008 25.07286228 13.12989008 28 14 C28 14.66 28 15.32 28 16 C21.82018023 16.7560954 17.57807873 14.15277009 12.3125 11.3125 C11.45849609 10.87744141 10.60449219 10.44238281 9.72460938 9.99414062 C5.25677675 7.62510133 2.0121547 5.8891078 0 1 C0 0.67 0 0.34 0 0 Z " fill="#A27825" transform="translate(41,107)"/>
<path d="M0 0 C0.99 0.33 1.98 0.66 3 1 C4.03131735 3.60862624 4.43057449 6.24047635 5 9 C8.63 9 12.26 9 16 9 C16 9.33 16 9.66 16 10 C10.555 10.495 10.555 10.495 5 11 C5 11.66 5 12.32 5 13 C9.29 13 13.58 13 18 13 C17.67 13.99 17.34 14.98 17 16 C12.05 16 7.1 16 2 16 C0.40837921 10.42932723 -0.20674944 5.78898419 0 0 Z " fill="#761406" transform="translate(55,37)"/>
<path d="M0 0 C0.99 0.33 1.98 0.66 3 1 C3.6875 3.0625 3.6875 3.0625 4 5 C4.66 3.68 5.32 2.36 6 1 C6.99 1 7.98 1 9 1 C9.66 1.99 10.32 2.98 11 4 C11.66 2.68 12.32 1.36 13 0 C13.66 0 14.32 0 15 0 C14.69106068 1.6256807 14.3777305 3.25052748 14.0625 4.875 C13.88847656 5.77992187 13.71445312 6.68484375 13.53515625 7.6171875 C13 10 13 10 12 12 C11.01 12 10.02 12 9 12 C8.67 10.35 8.34 8.7 8 7 C7.34 8.65 6.68 10.3 6 12 C4.68 12 3.36 12 2 12 C1.34 8.04 0.68 4.08 0 0 Z " fill="#DFD0C9" transform="translate(32,60)"/>
<path d="M0 0 C3.375 -0.125 3.375 -0.125 7 0 C7.66 0.66 8.32 1.32 9 2 C8.69496569 4.00451121 8.35919321 6.00448218 8 8 C8.3577614 10.27650745 8.3577614 10.27650745 9 12 C7.68 11.34 6.36 10.68 5 10 C5 9.34 5 8.68 5 8 C4.34 8 3.68 8 3 8 C3 9.65 3 11.3 3 13 C2.01 13 1.02 13 0 13 C0 8.71 0 4.42 0 0 Z " fill="#DBB2AA" transform="translate(80,60)"/>
<path d="M0 0 C1.31602523 0.61754259 2.62773556 1.24428742 3.9375 1.875 C4.66839844 2.22304688 5.39929688 2.57109375 6.15234375 2.9296875 C8 4 8 4 9 6 C11.56530879 6.75746142 14.08355786 7.40955785 16.6875 8 C29.46433566 10.97622378 29.46433566 10.97622378 34 14 C34.29296875 17.0390625 34.29296875 17.0390625 34.1875 20.625 C34.14689453 22.40777344 34.14689453 22.40777344 34.10546875 24.2265625 C34.07066406 25.14179687 34.03585938 26.05703125 34 27 C33.34 27 32.68 27 32 27 C31.67 23.04 31.34 19.08 31 15 C26.96310688 13.38524275 24.41280431 12.6885783 20.25 12.1875 C14.34279922 11.28826028 9.95297795 9.27697026 5 6 C5 5.34 5 4.68 5 4 C3.35 3.67 1.7 3.34 0 3 C0 2.01 0 1.02 0 0 Z " fill="#A53025" transform="translate(69,26)"/>
<path d="M0 0 C17.49 0 34.98 0 53 0 C52.41804665 4.07367344 51.84893516 7.9978771 51 12 C50.67 12 50.34 12 50 12 C50.33 8.7 50.66 5.4 51 2 C49.83210938 2.01160156 48.66421875 2.02320313 47.4609375 2.03515625 C31.62356552 2.13794418 15.82304339 1.60004683 0 1 C0 0.67 0 0.34 0 0 Z " fill="#B85436" transform="translate(59,55)"/>
<path d="M0 0 C3.3 0.33 6.6 0.66 10 1 C10.11527631 8.72351299 9.67526622 16.30678839 9 24 C8.34 24 7.68 24 7 24 C6.67 17.73 6.34 11.46 6 5 C3.69 4.34 1.38 3.68 -1 3 C-0.67 2.01 -0.34 1.02 0 0 Z " fill="#EDDD94" transform="translate(99,30)"/>
<path d="M0 0 C1.89659002 2.84488504 3.2034556 5.58630957 4.625 8.6875 C10.36844677 20.10569203 19.08899425 25.17831434 30 31 C31.79340781 31.99687406 33.58537965 32.99634246 35.375 34 C36.5828205 34.66759533 37.79092098 35.33468668 39 36 C36 37 36 37 34.14990234 36.30664062 C33.46879395 35.92701172 32.78768555 35.54738281 32.0859375 35.15625 C31.32901611 34.73794922 30.57209473 34.31964844 29.79223633 33.88867188 C28.99454834 33.43041016 28.19686035 32.97214844 27.375 32.5 C26.1542981 31.80487305 26.1542981 31.80487305 24.90893555 31.09570312 C14.08644752 24.84015538 5.60994961 18.47553388 0.5625 6.625 C0 4 0 4 0 0 Z " fill="#CFA055" transform="translate(29,83)"/>
<path d="M0 0 C1.98 0 3.96 0 6 0 C6 2.31 6 4.62 6 7 C4.35 7.33 2.7 7.66 1 8 C1.70576172 8.79664062 1.70576172 8.79664062 2.42578125 9.609375 C3.04839844 10.31578125 3.67101562 11.0221875 4.3125 11.75 C4.92738281 12.44609375 5.54226562 13.1421875 6.17578125 13.859375 C7.87314734 15.85114506 9.45477809 17.88898915 11 20 C6.74098722 19.21792464 4.41010463 17.36986677 1.41796875 14.3203125 C-1.27442631 9.91457513 -0.51426309 4.97120989 0 0 Z " fill="#AA2824" transform="translate(71,86)"/>
<path d="M0 0 C1.32 0 2.64 0 4 0 C4.50512244 1.60256108 5.00391627 3.20711792 5.5 4.8125 C5.7784375 5.70582031 6.056875 6.59914063 6.34375 7.51953125 C7 10 7 10 7 13 C6.01 13 5.02 13 4 13 C4 12.01 4 11.02 4 10 C2.35 10 0.7 10 -1 10 C-1 10.66 -1 11.32 -1 12 C-1.66 12 -2.32 12 -3 12 C-2.69106068 10.3743193 -2.3777305 8.74947252 -2.0625 7.125 C-1.88847656 6.22007813 -1.71445313 5.31515625 -1.53515625 4.3828125 C-1 2 -1 2 0 0 Z " fill="#DFC3BD" transform="translate(96,60)"/>
<path d="M0 0 C2.6855594 2.6855594 3.06049974 5.37621328 4 9 C5.98 8.34 7.96 7.68 10 7 C9.01 9.64 8.02 12.28 7 15 C4.69 15 2.38 15 0 15 C0 10.05 0 5.1 0 0 Z " fill="#EDDA92" transform="translate(67,30)"/>
<path d="M0 0 C2 2 2 2 2 6 C-29.68 5.505 -29.68 5.505 -62 5 C-62 4.67 -62 4.34 -62 4 C-41.54 4 -21.08 4 0 4 C0 2.68 0 1.36 0 0 Z " fill="#CEAD5D" transform="translate(112,73)"/>
<path d="M0 0 C11.52164009 -0.18451025 11.52164009 -0.18451025 17 1 C17 1.33 17 1.66 17 2 C11.06 2.495 11.06 2.495 5 3 C5 9.27 5 15.54 5 22 C4.34 22 3.68 22 3 22 C2.98018066 21.40461426 2.96036133 20.80922852 2.93994141 20.19580078 C2.84483874 17.50507847 2.73510158 14.81514852 2.625 12.125 C2.5940625 11.18785156 2.563125 10.25070313 2.53125 9.28515625 C2.49257813 8.38925781 2.45390625 7.49335937 2.4140625 6.5703125 C2.3826416 5.74289551 2.3512207 4.91547852 2.31884766 4.06298828 C2.17400863 1.78013915 2.17400863 1.78013915 0 0 Z " fill="#CA9F48" transform="translate(25,32)"/>
<path d="M0 0 C-3.5611527 2.28463656 -6.98810888 3.85190869 -11 5.1875 C-12.010625 5.53167969 -13.02125 5.87585937 -14.0625 6.23046875 C-16.86061325 6.96348512 -19.12619926 7.15319894 -22 7 C-22 5.68 -22 4.36 -22 3 C-20.83984375 2.81824219 -20.83984375 2.81824219 -19.65625 2.6328125 C-14.84135762 1.85813922 -10.08524638 1.09000225 -5.375 -0.1875 C-2 -1 -2 -1 0 0 Z " fill="#7A1708" transform="translate(52,32)"/>
<path d="M0 0 C1.32 0 2.64 0 4 0 C7 6.5 7 6.5 7 11 C6.34 11 5.68 11 5 11 C5 10.34 5 9.68 5 9 C2.36 9.66 -0.28 10.32 -3 11 C-2.01 7.37 -1.02 3.74 0 0 Z " fill="#DEC9C3" transform="translate(52,61)"/>
<path d="M0 0 C2.64 0 5.28 0 8 0 C8 0.66 8 1.32 8 2 C7.34 2 6.68 2 6 2 C6.99 4.31 7.98 6.62 9 9 C9.66 9 10.32 9 11 9 C9.25 14.75 9.25 14.75 7 17 C4.94637945 11.91059256 3.56820748 7.45479185 3 2 C2.01 2 1.02 2 0 2 C0 1.34 0 0.68 0 0 Z " fill="#D4BEB8" transform="translate(55,84)"/>
<path d="M0 0 C2.64 0.33 5.28 0.66 8 1 C8 1.33 8 1.66 8 2 C6.02 2 4.04 2 2 2 C3.25541557 4.51083114 4.50063488 4.87125446 7 6 C6.01 6.33 5.02 6.66 4 7 C4.33 8.65 4.66 10.3 5 12 C2.69 12 0.38 12 -2 12 C-2.66 9.69 -3.32 7.38 -4 5 C-2.68 5 -1.36 5 0 5 C0 3.35 0 1.7 0 0 Z " fill="#C16038" transform="translate(87,37)"/>
<path d="M0 0 C3.06830491 4.33172457 1.7646746 5.88260321 1 12 C13.87 12.495 13.87 12.495 27 13 C27 13.33 27 13.66 27 14 C22.88850113 14.16728213 18.77680194 14.32787468 14.66479492 14.48217773 C13.26498319 14.53566026 11.86524096 14.59099434 10.46557617 14.64819336 C8.4577104 14.72992949 6.44955813 14.80453025 4.44140625 14.87890625 C2.62684937 14.94960327 2.62684937 14.94960327 0.77563477 15.02172852 C-2 15 -2 15 -3 14 C-2.86759248 9.07036605 -2.16137791 4.46684769 0 0 Z " fill="#B78E40" transform="translate(23,64)"/>
<path d="M0 0 C2.56616632 3.84924948 2.55097676 6.4349304 3 11 C0.1875 11.3125 0.1875 11.3125 -3 11 C-4.875 8.5 -4.875 8.5 -6 6 C-4 4 -2 2 0 0 Z " fill="#C02E20" transform="translate(54,42)"/>
<path d="M0 0 C2.31 0 4.62 0 7 0 C7 0.66 7 1.32 7 2 C6.34 2 5.68 2 5 2 C5.99 4.64 6.98 7.28 8 10 C8.66 9.67 9.32 9.34 10 9 C8.25 14.75 8.25 14.75 6 17 C5.32779649 15.06441401 4.66241923 13.12645628 4 11.1875 C3.62875 10.10855469 3.2575 9.02960938 2.875 7.91796875 C2 5 2 5 2 2 C1.34 2 0.68 2 0 2 C0 1.34 0 0.68 0 0 Z " fill="#DFD8D2" transform="translate(47,84)"/>
<path d="M0 0 C2.3125 0.0625 2.3125 0.0625 5 1 C7.79273401 5.81505863 8.34433027 9.37593889 8 15 C7.34 14.34 6.68 13.68 6 13 C6 11.68 6 10.36 6 9 C5.01 9.33 4.02 9.66 3 10 C3 9.01 3 8.02 3 7 C2.01 7.495 2.01 7.495 1 8 C-0.35439668 5.29120665 -0.06501451 2.99066732 0 0 Z " fill="#8C1C1A" transform="translate(53,87)"/>
<path d="M0 0 C0.33 0.66 0.66 1.32 1 2 C-3.89176638 4.65350475 -8.45652407 4.02440164 -13.8125 3.625 C-14.69615234 3.56828125 -15.57980469 3.5115625 -16.49023438 3.453125 C-18.6608451 3.31232863 -20.83054071 3.1575466 -23 3 C-23 2.67 -23 2.34 -23 2 C-15.26940505 0.64290496 -7.85546636 -0.31918373 0 0 Z " fill="#D5B662" transform="translate(48,29)"/>
<path d="M0 0 C0.66 0.33 1.32 0.66 2 1 C-0.46637377 4.34722154 -2.29953393 6.2094519 -6 8 C-6.391875 8.721875 -6.78375 9.44375 -7.1875 10.1875 C-9 12 -9 12 -11.1875 12.03515625 C-13.48177163 11.77346589 -15.733031 11.43723511 -18 11 C-13.82238993 8.21492662 -9.37421008 5.99289538 -4.93359375 3.65625 C-1.98652334 2.16526267 -1.98652334 2.16526267 0 0 Z " fill="#963C15" transform="translate(64,21)"/>
<path d="M0 0 C0.66 0 1.32 0 2 0 C2.12375 0.639375 2.2475 1.27875 2.375 1.9375 C2.684375 2.9584375 2.684375 2.9584375 3 4 C3.66 4.33 4.32 4.66 5 5 C4.34 5 3.68 5 3 5 C3.33 6.32 3.66 7.64 4 9 C1.69 9.66 -0.62 10.32 -3 11 C-2.95875 10.236875 -2.9175 9.47375 -2.875 8.6875 C-2.77919176 5.77281584 -2.77919176 5.77281584 -5 3 C-3.35 3 -1.7 3 0 3 C0 2.01 0 1.02 0 0 Z " fill="#BF914B" transform="translate(45,39)"/>
<path d="M0 0 C0.66 0 1.32 0 2 0 C2 0.66 2 1.32 2 2 C4.97 2.33 7.94 2.66 11 3 C11 2.34 11 1.68 11 1 C12.65 1.33 14.3 1.66 16 2 C16 2.99 16 3.98 16 5 C18.97 5.495 18.97 5.495 22 6 C22 6.33 22 6.66 22 7 C13.73056456 7.84381994 6.6490873 4.78872975 -1 2 C-0.67 1.34 -0.34 0.68 0 0 Z " fill="#DEC47D" transform="translate(83,28)"/>
<path d="M0 0 C0.99 0.33 1.98 0.66 3 1 C3.765625 2.8125 3.765625 2.8125 4.25 5 C4.50523438 6.0828125 4.50523438 6.0828125 4.765625 7.1875 C4.88164063 8.0846875 4.88164063 8.0846875 5 9 C4.67 9.33 4.34 9.66 4 10 C3.95919217 11.99958364 3.95745644 14.00045254 4 16 C3.34 16 2.68 16 2 16 C0.40837921 10.42932723 -0.20674944 5.78898419 0 0 Z " fill="#871D10" transform="translate(55,37)"/>
<path d="M0 0 C1.46067199 0.45082469 2.91848032 0.91093537 4.375 1.375 C5.18710937 1.63023438 5.99921875 1.88546875 6.8359375 2.1484375 C9 3 9 3 11 5 C12.96690374 5.67292501 12.96690374 5.67292501 15.125 6.125 C16.40375 6.41375 17.6825 6.7025 19 7 C19 7.66 19 8.32 19 9 C14.09431792 9.33096806 11.04553132 8.41807394 6.6875 6.1875 C5.11548828 5.40439453 5.11548828 5.40439453 3.51171875 4.60546875 C1 3 1 3 0 0 Z " fill="#946E2C" transform="translate(50,114)"/>
<path d="M0 0 C0.66 0 1.32 0 2 0 C2.33 1.65 2.66 3.3 3 5 C1.63875 4.7834375 1.63875 4.7834375 0.25 4.5625 C-5.05105363 4.47559748 -9.04370724 7.77718504 -13.328125 10.56640625 C-14.20984375 11.03949219 -15.0915625 11.51257813 -16 12 C-16.99 11.67 -17.98 11.34 -19 11 C-16.82253747 9.54835831 -14.76277679 8.2982635 -12.4609375 7.08984375 C-11.79835938 6.73986328 -11.13578125 6.38988281 -10.453125 6.02929688 C-9.05997745 5.29737067 -7.66674737 4.56560154 -6.2734375 3.83398438 C-2.92551748 2.2219788 -2.92551748 2.2219788 0 0 Z " fill="#B88330" transform="translate(86,108)"/>
<path d="M0 0 C1.32 0 2.64 0 4 0 C4 5.94 4 11.88 4 18 C3.34 18 2.68 18 2 18 C1.96261719 17.09636719 1.92523438 16.19273438 1.88671875 15.26171875 C1.82097656 14.08222656 1.75523438 12.90273438 1.6875 11.6875 C1.62949219 10.51574219 1.57148437 9.34398437 1.51171875 8.13671875 C0.98395232 4.9016314 0.57619276 3.91315119 -2 2 C-0.35 1.67 1.3 1.34 3 1 C2.01 0.67 1.02 0.34 0 0 Z " fill="#812E13" transform="translate(101,35)"/>
<path d="M0 0 C0.66 0.33 1.32 0.66 2 1 C1.90460938 1.68964844 1.80921875 2.37929688 1.7109375 3.08984375 C0.94026805 9.6226115 1.23411661 14.66359489 3 21 C0.1500356 17.50231641 -2.07352661 14.45232873 -1.93359375 9.78515625 C-1.58192615 6.34104654 -1.09805521 3.29416562 0 0 Z " fill="#D6B86A" transform="translate(112,56)"/>
<path d="M0 0 C4 0 4 0 5.703125 1.4609375 C6.46882813 2.40839844 6.46882813 2.40839844 7.25 3.375 C8.03117187 4.31472656 8.03117187 4.31472656 8.828125 5.2734375 C10 7 10 7 10 9 C10.66 9 11.32 9 12 9 C12 9.66 12 10.32 12 11 C8.17753412 10.44040477 6.41028259 8.78682643 3.75 6.0625 C3.04359375 5.35222656 2.3371875 4.64195313 1.609375 3.91015625 C0 2 0 2 0 0 Z " fill="#D8C6C1" transform="translate(72,94)"/>
<path d="M0 0 C0.66 0 1.32 0 2 0 C1 3 1 3 -0.58227539 4.07495117 C-1.57988892 4.55411987 -1.57988892 4.55411987 -2.59765625 5.04296875 C-3.31630859 5.39423828 -4.03496094 5.74550781 -4.77539062 6.10742188 C-5.53013672 6.46384766 -6.28488281 6.82027344 -7.0625 7.1875 C-7.82111328 7.55552734 -8.57972656 7.92355469 -9.36132812 8.30273438 C-11.23653819 9.21085497 -13.11772733 10.10661015 -15 11 C-15 10.01 -15 9.02 -15 8 C-13.68 8 -12.36 8 -11 8 C-11 7.34 -11 6.68 -11 6 C-9.73308493 5.32591692 -8.46129251 4.66099503 -7.1875 4 C-6.47980469 3.62875 -5.77210937 3.2575 -5.04296875 2.875 C-3 2 -3 2 0 2 C0 1.34 0 0.68 0 0 Z " fill="#AA8B4C" transform="translate(86,112)"/>
<path d="M0 0 C0.33 0 0.66 0 1 0 C1 3.63 1 7.26 1 11 C-3.44607497 9.22157001 -4.9797308 8.35585467 -8 5 C-6.02 5.66 -4.04 6.32 -2 7 C-1.855625 6.030625 -1.71125 5.06125 -1.5625 4.0625 C-1 1 -1 1 0 0 Z " fill="#CBA349" transform="translate(66,32)"/>
<path d="M0 0 C0.33 0.99 0.66 1.98 1 3 C-0.24354886 4.29787866 -1.4951264 5.58806759 -2.75 6.875 C-3.44609375 7.59429687 -4.1421875 8.31359375 -4.859375 9.0546875 C-6.85122217 10.86479679 -8.5427658 11.94848086 -11 13 C-10.67 11.68 -10.34 10.36 -10 9 C-9.34 9 -8.68 9 -8 9 C-7.67 8.01 -7.34 7.02 -7 6 C-5.37109375 4.39453125 -5.37109375 4.39453125 -3.4375 2.8125 C-2.79683594 2.28269531 -2.15617187 1.75289063 -1.49609375 1.20703125 C-1.00238281 0.80871094 -0.50867188 0.41039063 0 0 Z " fill="#B2924A" transform="translate(100,100)"/>
<path d="M0 0 C2.46301423 2.46301423 2.76766521 4.27360036 3.625 7.625 C3.88539062 8.62789062 4.14578125 9.63078125 4.4140625 10.6640625 C4.60742188 11.43492188 4.80078125 12.20578125 5 13 C3.68 13 2.36 13 1 13 C0.63901937 11.02206479 0.28638652 9.04260427 -0.0625 7.0625 C-0.25972656 5.96035156 -0.45695312 4.85820313 -0.66015625 3.72265625 C-0.77230469 2.82417969 -0.88445313 1.92570312 -1 1 C-0.67 0.67 -0.34 0.34 0 0 Z " fill="#902420" transform="translate(49,89)"/>
<path d="M0 0 C1.98 0.99 1.98 0.99 4 2 C4 3.32 4 4.64 4 6 C5.65 5.67 7.3 5.34 9 5 C9.99 6.485 9.99 6.485 11 8 C8.03 8 5.06 8 2 8 C0 4 0 4 0 0 Z " fill="#881D0E" transform="translate(39,43)"/>
<path d="M0 0 C0.66 0 1.32 0 2 0 C2 6.6 2 13.2 2 20 C1.34 20 0.68 20 0 20 C-0.19491452 18.54263913 -0.38069358 17.08405407 -0.5625 15.625 C-0.66691406 14.81289062 -0.77132812 14.00078125 -0.87890625 13.1640625 C-1 11 -1 11 0 9 C0.06950541 7.45976004 0.08452357 5.91665012 0.0625 4.375 C0.05347656 3.55773437 0.04445313 2.74046875 0.03515625 1.8984375 C0.02355469 1.27195312 0.01195313 0.64546875 0 0 Z " fill="#871714" transform="translate(65,86)"/>
<path d="M0 0 C0.66 0 1.32 0 2 0 C2.05395478 1.62463842 2.09277195 3.24978541 2.125 4.875 C2.14820312 5.77992187 2.17140625 6.68484375 2.1953125 7.6171875 C2 10 2 10 0 12 C-2.0625 11.8125 -2.0625 11.8125 -4 11 C-4.33 10.01 -4.66 9.02 -5 8 C-2.525 8.495 -2.525 8.495 0 9 C0 6.03 0 3.06 0 0 Z " fill="#E0CEC7" transform="translate(67,61)"/>
<path d="M0 0 C6.875 0.875 6.875 0.875 8 2 C8.07258946 4.18639453 8.08373783 6.37500389 8.0625 8.5625 C8.05347656 9.76003906 8.04445313 10.95757812 8.03515625 12.19140625 C8.02355469 13.11824219 8.01195313 14.04507813 8 15 C7.34 15 6.68 15 6 15 C5.67 11.04 5.34 7.08 5 3 C2.525 2.01 2.525 2.01 0 1 C0 0.67 0 0.34 0 0 Z " fill="#B1372B" transform="translate(95,38)"/>
<path d="M0 0 C2.64 1.98 5.28 3.96 8 6 C3.19789388 7.20052653 2.16210087 6.3524918 -2 4 C-2.66 3.67 -3.32 3.34 -4 3 C-2.68 2.01 -1.36 1.02 0 0 Z " fill="#E6D591" transform="translate(67,13)"/>
<path d="M0 0 C3.21524305 1.40844718 5.32183868 3.10344786 7.75 5.625 C8.67039062 6.57246094 8.67039062 6.57246094 9.609375 7.5390625 C10.29773438 8.26222656 10.29773438 8.26222656 11 9 C10.01 9.33 9.02 9.66 8 10 C6.66070495 8.71451591 5.32871357 7.42141845 4 6.125 C2.88625 5.04605469 2.88625 5.04605469 1.75 3.9453125 C0 2 0 2 0 0 Z " fill="#89211F" transform="translate(71,96)"/>
<path d="M0 0 C0.66 0.66 1.32 1.32 2 2 C3.31747324 2.69748583 4.64914193 3.36959957 6 4 C5.01 4.33 4.02 4.66 3 5 C3.33 6.65 3.66 8.3 4 10 C3.01 9.34 2.02 8.68 1 8 C1 7.34 1 6.68 1 6 C-0.32 5.34 -1.64 4.68 -3 4 C-2.01 4 -1.02 4 0 4 C0 2.68 0 1.36 0 0 Z " fill="#DEBC7D" transform="translate(88,39)"/>
<path d="M0 0 C5.19209404 -0.21192221 9.126739 0.4087311 14 2 C13.67 2.66 13.34 3.32 13 4 C8.71 3.34 4.42 2.68 0 2 C0 1.34 0 0.68 0 0 Z " fill="#5A1106" transform="translate(90,34)"/>
<path d="M0 0 C3 1 3 1 4.1875 3.375 C5 6 5 6 5 9 C4.34 9 3.68 9 3 9 C2.67 9.99 2.34 10.98 2 12 C1.34 8.04 0.68 4.08 0 0 Z " fill="#D7B4AD" transform="translate(32,60)"/>
<path d="M0 0 C0.99 0 1.98 0 3 0 C3 0.66 3 1.32 3 2 C2.34 2 1.68 2 1 2 C0.34 4.97 -0.32 7.94 -1 11 C-1.66 11 -2.32 11 -3 11 C-2.69217504 9.35328588 -2.37860766 7.70764424 -2.0625 6.0625 C-1.88847656 5.14597656 -1.71445313 4.22945313 -1.53515625 3.28515625 C-1 1 -1 1 0 0 Z " fill="#E5D8D2" transform="translate(96,61)"/>
<path d="M0 0 C4.02992782 0.55312735 8.02022924 1.1558062 12 2 C12 2.33 12 2.66 12 3 C7.71 3 3.42 3 -1 3 C-0.67 2.01 -0.34 1.02 0 0 Z " fill="#D23C2C" transform="translate(85,50)"/>
<path d="M0 0 C-0.9375 2.0625 -0.9375 2.0625 -3 4 C-6.07110598 4.05989746 -8.99011728 3.58052245 -12 3 C-8.52582963 0.68388642 -4.04642977 -2.02321489 0 0 Z " fill="#9B3014" transform="translate(58,29)"/>
<path d="M0 0 C0.33 0.66 0.66 1.32 1 2 C1.66 2 2.32 2 3 2 C3 3.65 3 5.3 3 7 C1.68 7.33 0.36 7.66 -1 8 C-0.67 5.36 -0.34 2.72 0 0 Z " fill="#D1A198" transform="translate(52,61)"/>
<path d="M0 0 C3.00617269 3.00617269 2.59585316 5.82381598 3 10 C2.01 10 1.02 10 0 10 C0 6.7 0 3.4 0 0 Z " fill="#F4E9BC" transform="translate(67,30)"/>
<path d="M0 0 C2.97 0.33 5.94 0.66 9 1 C8.67 2.32 8.34 3.64 8 5 C5.36 4.01 2.72 3.02 0 2 C0 1.34 0 0.68 0 0 Z " fill="#F4E8A5" transform="translate(98,31)"/>
<path d="M0 0 C4.51720311 -0.36625971 4.51720311 -0.36625971 6.8125 1.375 C8 3 8 3 8 5 C8.99 5 9.98 5 11 5 C11.33 5.99 11.66 6.98 12 8 C11.34 8 10.68 8 10 8 C10 7.34 10 6.68 10 6 C9.401875 5.896875 8.80375 5.79375 8.1875 5.6875 C5.67142032 4.8967321 4.76245654 3.91571363 3 2 C2.01 1.34 1.02 0.68 0 0 Z " fill="#E1CA76" transform="translate(65,18)"/>
<path d="M0 0 C2.49770493 1.1893833 4.48680657 2.50776832 6.625 4.25 C2.06762737 3.81179109 -0.95153445 3.39958831 -4.375 0.25 C-2.375 -0.75 -2.375 -0.75 0 0 Z " fill="#BE2611" transform="translate(63.375,113.75)"/>
<path d="M0 0 C1.98 0 3.96 0 6 0 C6 2.31 6 4.62 6 7 C5.34 7 4.68 7 4 7 C4 5.35 4 3.7 4 2 C2.68 2 1.36 2 0 2 C0 1.34 0 0.68 0 0 Z " fill="#8F1E19" transform="translate(71,86)"/>
<path d="M0 0 C0.99 0 1.98 0 3 0 C3 1.32 3 2.64 3 4 C3.66 4.33 4.32 4.66 5 5 C3.02 5.99 3.02 5.99 1 7 C0.67 4.69 0.34 2.38 0 0 Z " fill="#A42A27" transform="translate(53,88)"/>
<path d="M0 0 C2.64 0 5.28 0 8 0 C8 0.66 8 1.32 8 2 C7.34 2 6.68 2 6 2 C5.67 2.66 5.34 3.32 5 4 C2.525 3.01 2.525 3.01 0 2 C0 1.34 0 0.68 0 0 Z " fill="#D8C9C3" transform="translate(55,84)"/>
<path d="M0 0 C0.33 0 0.66 0 1 0 C1.37254569 3.35291118 1.31050198 4.6038423 -0.8125 7.3125 C-3 9 -3 9 -6 9 C-6 8.34 -6 7.68 -6 7 C-5.01 6.67 -4.02 6.34 -3 6 C-1.29144978 2.99992729 -1.29144978 2.99992729 0 0 Z " fill="#B03820" transform="translate(54,37)"/>
<path d="M0 0 C6.64615385 1.47692308 6.64615385 1.47692308 8.4375 4.125 C8.7159375 5.053125 8.7159375 5.053125 9 6 C5.06326356 4.68775452 2.77280706 3.08089673 0 0 Z " fill="#9D7E3E" transform="translate(42,110)"/>
<path d="M0 0 C0.99 0 1.98 0 3 0 C3.33 0.66 3.66 1.32 4 2 C3.06553465 4.03144641 2.06775224 6.03533587 1 8 C-1 5 -1 5 -0.625 2.3125 C-0.41875 1.549375 -0.2125 0.78625 0 0 Z " fill="#D6C0BB" transform="translate(53,93)"/>
<path d="M0 0 C2.70608417 1.35304209 2.96183047 2.80966544 4.125 5.5625 C4.47820313 6.38878906 4.83140625 7.21507813 5.1953125 8.06640625 C5.46085937 8.70449219 5.72640625 9.34257813 6 10 C3 9 3 9 1.83203125 7.15234375 C1.49558594 6.42144531 1.15914062 5.69054687 0.8125 4.9375 C0.46832031 4.20402344 0.12414062 3.47054687 -0.23046875 2.71484375 C-0.48441406 2.14894531 -0.73835938 1.58304687 -1 1 C-0.67 0.67 -0.34 0.34 0 0 Z " fill="#A87C28" transform="translate(29,89)"/>
<path d="M0 0 C2.31 0 4.62 0 7 0 C7 0.66 7 1.32 7 2 C6.34 2 5.68 2 5 2 C4.67 2.66 4.34 3.32 4 4 C3.01 4.495 3.01 4.495 2 5 C2 4.01 2 3.02 2 2 C1.34 2 0.68 2 0 2 C0 1.34 0 0.68 0 0 Z " fill="#D8CBC5" transform="translate(47,84)"/>
<path d="M0 0 C0.66 0 1.32 0 2 0 C1.67 2.31 1.34 4.62 1 7 C-0.32 7.33 -1.64 7.66 -3 8 C-2.01 5.36 -1.02 2.72 0 0 Z " fill="#D5ABA3" transform="translate(45,60)"/>
<path d="M0 0 C1.32 0 2.64 0 4 0 C3.67 2.64 3.34 5.28 3 8 C2.01 8 1.02 8 0 8 C0.33 6.35 0.66 4.7 1 3 C1.66 3 2.32 3 3 3 C3 2.34 3 1.68 3 1 C2.01 0.67 1.02 0.34 0 0 Z " fill="#D18980" transform="translate(96,60)"/>
<path d="M0 0 C5.75 0.75 5.75 0.75 8 3 C5.6875 3.625 5.6875 3.625 3 4 C2.01 3.34 1.02 2.68 0 2 C0 1.34 0 0.68 0 0 Z " fill="#611606" transform="translate(76,28)"/>
<path d="M0 0 C3.14958831 3.42346555 3.56179109 6.44262737 4 11 C0.85041169 7.57653445 0.43820891 4.55737263 0 0 Z " fill="#DFC677" transform="translate(111,66)"/>
<path d="M0 0 C0.66 0 1.32 0 2 0 C2 0.66 2 1.32 2 2 C2.99 2.33 3.98 2.66 5 3 C4.34 3.66 3.68 4.32 3 5 C0.4375 4.75 0.4375 4.75 -2 4 C-2.33 3.34 -2.66 2.68 -3 2 C-2.01 2.33 -1.02 2.66 0 3 C0 2.01 0 1.02 0 0 Z " fill="#7A2E14" transform="translate(73,24)"/>
<path d="M0 0 C2.97 0.495 2.97 0.495 6 1 C6 2.32 6 3.64 6 5 C2.83884224 3.63016497 2.0072908 3.0109362 0 0 Z " fill="#C32711" transform="translate(41,102)"/>
<path d="M0 0 C2.475 0.495 2.475 0.495 5 1 C5.33 1.99 5.66 2.98 6 4 C4.35 4.33 2.7 4.66 1 5 C0.67 3.35 0.34 1.7 0 0 Z " fill="#A56F22" transform="translate(84,44)"/>
</svg>
