<svg id="visual" viewBox="0 0 900 600" width="900" height="600" xmlns="http://www.w3.org/2000/svg" xmlns:xlink="http://www.w3.org/1999/xlink" version="1.1"><path d="M0 503L16.7 496.8C33.3 490.7 66.7 478.3 100 473.7C133.3 469 166.7 472 200 475C233.3 478 266.7 481 300 480C333.3 479 366.7 474 400 473.5C433.3 473 466.7 477 500 474.5C533.3 472 566.7 463 600 464.5C633.3 466 666.7 478 700 482.5C733.3 487 766.7 484 800 483.5C833.3 483 866.7 485 883.3 486L900 487L900 601L883.3 601C866.7 601 833.3 601 800 601C766.7 601 733.3 601 700 601C666.7 601 633.3 601 600 601C566.7 601 533.3 601 500 601C466.7 601 433.3 601 400 601C366.7 601 333.3 601 300 601C266.7 601 233.3 601 200 601C166.7 601 133.3 601 100 601C66.7 601 33.3 601 16.7 601L0 601Z" fill="#fa7268"></path><path d="M0 497L16.7 493.2C33.3 489.3 66.7 481.7 100 480.5C133.3 479.3 166.7 484.7 200 485.2C233.3 485.7 266.7 481.3 300 486.3C333.3 491.3 366.7 505.7 400 505.2C433.3 504.7 466.7 489.3 500 482.5C533.3 475.7 566.7 477.3 600 484C633.3 490.7 666.7 502.3 700 504C733.3 505.7 766.7 497.3 800 490.5C833.3 483.7 866.7 478.3 883.3 475.7L900 473L900 601L883.3 601C866.7 601 833.3 601 800 601C766.7 601 733.3 601 700 601C666.7 601 633.3 601 600 601C566.7 601 533.3 601 500 601C466.7 601 433.3 601 400 601C366.7 601 333.3 601 300 601C266.7 601 233.3 601 200 601C166.7 601 133.3 601 100 601C66.7 601 33.3 601 16.7 601L0 601Z" fill="#f16367"></path><path d="M0 497L16.7 502.2C33.3 507.3 66.7 517.7 100 519C133.3 520.3 166.7 512.7 200 507.7C233.3 502.7 266.7 500.3 300 500.2C333.3 500 366.7 502 400 508.5C433.3 515 466.7 526 500 531.7C533.3 537.3 566.7 537.7 600 534C633.3 530.3 666.7 522.7 700 518.3C733.3 514 766.7 513 800 512.5C833.3 512 866.7 512 883.3 512L900 512L900 601L883.3 601C866.7 601 833.3 601 800 601C766.7 601 733.3 601 700 601C666.7 601 633.3 601 600 601C566.7 601 533.3 601 500 601C466.7 601 433.3 601 400 601C366.7 601 333.3 601 300 601C266.7 601 233.3 601 200 601C166.7 601 133.3 601 100 601C66.7 601 33.3 601 16.7 601L0 601Z" fill="#e85467"></path><path d="M0 522L16.7 526.7C33.3 531.3 66.7 540.7 100 543C133.3 545.3 166.7 540.7 200 537.8C233.3 535 266.7 534 300 533.5C333.3 533 366.7 533 400 533C433.3 533 466.7 533 500 534.3C533.3 535.7 566.7 538.3 600 541.3C633.3 544.3 666.7 547.7 700 547.3C733.3 547 766.7 543 800 540.7C833.3 538.3 866.7 537.7 883.3 537.3L900 537L900 601L883.3 601C866.7 601 833.3 601 800 601C766.7 601 733.3 601 700 601C666.7 601 633.3 601 600 601C566.7 601 533.3 601 500 601C466.7 601 433.3 601 400 601C366.7 601 333.3 601 300 601C266.7 601 233.3 601 200 601C166.7 601 133.3 601 100 601C66.7 601 33.3 601 16.7 601L0 601Z" fill="#de4467"></path><path d="M0 562L16.7 562C33.3 562 66.7 562 100 562C133.3 562 166.7 562 200 558.3C233.3 554.7 266.7 547.3 300 548.3C333.3 549.3 366.7 558.7 400 559.8C433.3 561 466.7 554 500 550C533.3 546 566.7 545 600 545.2C633.3 545.3 666.7 546.7 700 550.3C733.3 554 766.7 560 800 561C833.3 562 866.7 558 883.3 556L900 554L900 601L883.3 601C866.7 601 833.3 601 800 601C766.7 601 733.3 601 700 601C666.7 601 633.3 601 600 601C566.7 601 533.3 601 500 601C466.7 601 433.3 601 400 601C366.7 601 333.3 601 300 601C266.7 601 233.3 601 200 601C166.7 601 133.3 601 100 601C66.7 601 33.3 601 16.7 601L0 601Z" fill="#d23467"></path><path d="M0 574L16.7 572.3C33.3 570.7 66.7 567.3 100 567.3C133.3 567.3 166.7 570.7 200 571C233.3 571.3 266.7 568.7 300 568.8C333.3 569 366.7 572 400 575C433.3 578 466.7 581 500 582.7C533.3 584.3 566.7 584.7 600 581.5C633.3 578.3 666.7 571.7 700 570.2C733.3 568.7 766.7 572.3 800 573.3C833.3 574.3 866.7 572.7 883.3 571.8L900 571L900 601L883.3 601C866.7 601 833.3 601 800 601C766.7 601 733.3 601 700 601C666.7 601 633.3 601 600 601C566.7 601 533.3 601 500 601C466.7 601 433.3 601 400 601C366.7 601 333.3 601 300 601C266.7 601 233.3 601 200 601C166.7 601 133.3 601 100 601C66.7 601 33.3 601 16.7 601L0 601Z" fill="#c62368"></path></svg>